STARTFONT 2.1
COMMENT $XConsortium: 7x13.bdf,v 1.11 92/04/02 14:25:38 gildea Exp $
COMMENT  
COMMENT  Copyright (c) 1990 Stephen Gildea
COMMENT  
COMMENT  Permission to use, copy, modify, and distribute this software for
COMMENT  any purpose is hereby granted without fee, provided that the above
COMMENT  copyright notice and this permission notice appear in all copies.
COMMENT  The authors make no representations about the suitability of this
COMMENT  software for any purpose.  It is provided "as is" without express
COMMENT  or implied warranty.
COMMENT  
COMMENT  Designed by Stephen Gildea <gildea@lcs.mit.edu>
COMMENT  Original design November 1989.
COMMENT  Current version June 1990.
COMMENT  
COMMENT  Characters above 127 designed and made by
COMMENT  Thomas Bagli (pyramid!pcsbst!tom@uunet.UU.NET)
COMMENT  PCS Computer Systeme, West Germany
COMMENT  
FONT -Misc-Fixed-Medium-R-Normal--13-120-75-75-C-70-ISO8859-1
SIZE 13 78 78
FONTBOUNDINGBOX 7 13 0 -2
STARTPROPERTIES 21
FONTNAME_REGISTRY ""
FOUNDRY "Misc"
FAMILY_NAME "Fixed"
WEIGHT_NAME "Medium"
SLANT "R"
SETWIDTH_NAME "Normal"
ADD_STYLE_NAME ""
PIXEL_SIZE 13
POINT_SIZE 120
RESOLUTION_X 75
RESOLUTION_Y 75
SPACING "C"
AVERAGE_WIDTH 70
CHARSET_REGISTRY "ISO8859"
CHARSET_ENCODING "1"
UNDERLINE_POSITION -1
DESTINATION 1
DEFAULT_CHAR 0
FONT_DESCENT 2
FONT_ASCENT 11
DATE "June 1990"
ENDPROPERTIES
CHARS 224
STARTCHAR Error
ENCODING 0
SWIDTH 570 0
DWIDTH 7 0
BBX 7 13 0 -2
BITMAP
00
78
78
78
78
78
78
78
78
78
78
78
00
ENDCHAR
STARTCHAR C001
ENCODING 1
SWIDTH 570 0
DWIDTH 7 0
BBX 7 13 0 -2
BITMAP
00
00
00
00
00
20
70
f8
70
20
00
00
00
ENDCHAR
STARTCHAR C002
ENCODING 2
SWIDTH 570 0
DWIDTH 7 0
BBX 7 13 0 -2
BITMAP
00
a8
54
a8
54
a8
54
a8
54
a8
54
a8
54
ENDCHAR
STARTCHAR HT
ENCODING 3
SWIDTH 570 0
DWIDTH 7 0
BBX 7 13 0 -2
BITMAP
00
00
90
90
f0
90
90
1c
08
08
08
08
00
ENDCHAR
STARTCHAR FF
ENCODING 4
SWIDTH 570 0
DWIDTH 7 0
BBX 7 13 0 -2
BITMAP
00
00
f0
80
e0
80
80
3c
20
38
20
20
00
ENDCHAR
STARTCHAR CR
ENCODING 5
SWIDTH 570 0
DWIDTH 7 0
BBX 7 13 0 -2
BITMAP
00
00
70
80
80
80
70
38
24
38
28
24
00
ENDCHAR
STARTCHAR LF
ENCODING 6
SWIDTH 570 0
DWIDTH 7 0
BBX 7 13 0 -2
BITMAP
00
00
80
80
80
80
f0
3c
20
38
20
20
00
ENDCHAR
STARTCHAR Degree
ENCODING 7
SWIDTH 570 0
DWIDTH 7 0
BBX 7 13 0 -2
BITMAP
00
00
70
88
88
70
00
00
00
00
00
00
00
ENDCHAR
STARTCHAR Plus/Minus
ENCODING 8
SWIDTH 570 0
DWIDTH 7 0
BBX 7 13 0 -2
BITMAP
00
00
00
20
20
f8
20
20
00
f8
00
00
00
ENDCHAR
STARTCHAR NL
ENCODING 9
SWIDTH 570 0
DWIDTH 7 0
BBX 7 13 0 -2
BITMAP
00
00
90
d0
b0
90
90
20
20
20
20
3c
00
ENDCHAR
STARTCHAR VT
ENCODING 10
SWIDTH 570 0
DWIDTH 7 0
BBX 7 13 0 -2
BITMAP
00
00
88
88
50
50
20
7c
10
10
10
10
00
ENDCHAR
STARTCHAR C013
ENCODING 11
SWIDTH 570 0
DWIDTH 7 0
BBX 7 13 0 -2
BITMAP
10
10
10
10
10
10
f0
00
00
00
00
00
00
ENDCHAR
STARTCHAR C014
ENCODING 12
SWIDTH 570 0
DWIDTH 7 0
BBX 7 13 0 -2
BITMAP
00
00
00
00
00
00
f0
10
10
10
10
10
10
ENDCHAR
STARTCHAR C015
ENCODING 13
SWIDTH 570 0
DWIDTH 7 0
BBX 7 13 0 -2
BITMAP
00
00
00
00
00
00
1e
10
10
10
10
10
10
ENDCHAR
STARTCHAR C016
ENCODING 14
SWIDTH 570 0
DWIDTH 7 0
BBX 7 13 0 -2
BITMAP
10
10
10
10
10
10
1e
00
00
00
00
00
00
ENDCHAR
STARTCHAR C017
ENCODING 15
SWIDTH 570 0
DWIDTH 7 0
BBX 7 13 0 -2
BITMAP
10
10
10
10
10
10
fe
10
10
10
10
10
10
ENDCHAR
STARTCHAR C020
ENCODING 16
SWIDTH 570 0
DWIDTH 7 0
BBX 7 13 0 -2
BITMAP
00
00
fe
00
00
00
00
00
00
00
00
00
00
ENDCHAR
STARTCHAR C021
ENCODING 17
SWIDTH 570 0
DWIDTH 7 0
BBX 7 13 0 -2
BITMAP
00
00
00
00
fe
00
00
00
00
00
00
00
00
ENDCHAR
STARTCHAR C022
ENCODING 18
SWIDTH 570 0
DWIDTH 7 0
BBX 7 13 0 -2
BITMAP
00
00
00
00
00
00
fe
00
00
00
00
00
00
ENDCHAR
STARTCHAR C023
ENCODING 19
SWIDTH 570 0
DWIDTH 7 0
BBX 7 13 0 -2
BITMAP
00
00
00
00
00
00
00
00
fe
00
00
00
00
ENDCHAR
STARTCHAR C024
ENCODING 20
SWIDTH 570 0
DWIDTH 7 0
BBX 7 13 0 -2
BITMAP
00
00
00
00
00
00
00
00
00
00
fe
00
00
ENDCHAR
STARTCHAR C025
ENCODING 21
SWIDTH 570 0
DWIDTH 7 0
BBX 7 13 0 -2
BITMAP
10
10
10
10
10
10
1e
10
10
10
10
10
10
ENDCHAR
STARTCHAR C026
ENCODING 22
SWIDTH 570 0
DWIDTH 7 0
BBX 7 13 0 -2
BITMAP
10
10
10
10
10
10
f0
10
10
10
10
10
10
ENDCHAR
STARTCHAR C027
ENCODING 23
SWIDTH 570 0
DWIDTH 7 0
BBX 7 13 0 -2
BITMAP
10
10
10
10
10
10
fe
00
00
00
00
00
00
ENDCHAR
STARTCHAR C030
ENCODING 24
SWIDTH 570 0
DWIDTH 7 0
BBX 7 13 0 -2
BITMAP
00
00
00
00
00
00
fe
10
10
10
10
10
10
ENDCHAR
STARTCHAR C031
ENCODING 25
SWIDTH 570 0
DWIDTH 7 0
BBX 7 13 0 -2
BITMAP
10
10
10
10
10
10
10
10
10
10
10
10
10
ENDCHAR
STARTCHAR <=
ENCODING 26
SWIDTH 570 0
DWIDTH 7 0
BBX 7 13 0 -2
BITMAP
00
00
00
04
18
60
80
60
18
04
fc
00
00
ENDCHAR
STARTCHAR >=
ENCODING 27
SWIDTH 570 0
DWIDTH 7 0
BBX 7 13 0 -2
BITMAP
00
00
00
80
60
18
04
18
60
80
fc
00
00
ENDCHAR
STARTCHAR Pi
ENCODING 28
SWIDTH 570 0
DWIDTH 7 0
BBX 7 13 0 -2
BITMAP
00
00
00
00
00
fc
48
48
48
48
88
00
00
ENDCHAR
STARTCHAR Not Equal
ENCODING 29
SWIDTH 570 0
DWIDTH 7 0
BBX 7 13 0 -2
BITMAP
00
00
00
04
08
fc
10
20
fc
40
80
00
00
ENDCHAR
STARTCHAR Pound Sterling
ENCODING 30
SWIDTH 570 0
DWIDTH 7 0
BBX 7 13 0 -2
BITMAP
00
00
38
44
40
40
e0
40
40
44
b8
00
00
ENDCHAR
STARTCHAR Cdot
ENCODING 31
SWIDTH 570 0
DWIDTH 7 0
BBX 7 13 0 -2
BITMAP
00
00
00
00
00
00
10
00
00
00
00
00
00
ENDCHAR
STARTCHAR Space
ENCODING 32
SWIDTH 570 0
DWIDTH 7 0
BBX 7 13 0 -2
BITMAP
00
00
00
00
00
00
00
00
00
00
00
00
00
ENDCHAR
STARTCHAR !
ENCODING 33
SWIDTH 570 0
DWIDTH 7 0
BBX 7 13 0 -2
BITMAP
00
00
10
10
10
10
10
10
10
00
10
00
00
ENDCHAR
STARTCHAR "
ENCODING 34
SWIDTH 570 0
DWIDTH 7 0
BBX 7 13 0 -2
BITMAP
00
00
28
28
28
00
00
00
00
00
00
00
00
ENDCHAR
STARTCHAR #
ENCODING 35
SWIDTH 570 0
DWIDTH 7 0
BBX 7 13 0 -2
BITMAP
00
00
00
28
28
7c
28
7c
28
28
00
00
00
ENDCHAR
STARTCHAR $
ENCODING 36
SWIDTH 570 0
DWIDTH 7 0
BBX 7 13 0 -2
BITMAP
00
00
00
10
3c
50
38
14
78
10
00
00
00
ENDCHAR
STARTCHAR %
ENCODING 37
SWIDTH 570 0
DWIDTH 7 0
BBX 7 13 0 -2
BITMAP
00
00
44
a4
48
10
10
20
48
94
88
00
00
ENDCHAR
STARTCHAR &
ENCODING 38
SWIDTH 570 0
DWIDTH 7 0
BBX 7 13 0 -2
BITMAP
00
00
00
00
60
90
90
60
94
88
74
00
00
ENDCHAR
STARTCHAR '
ENCODING 39
SWIDTH 570 0
DWIDTH 7 0
BBX 7 13 0 -2
BITMAP
00
00
38
30
40
00
00
00
00
00
00
00
00
ENDCHAR
STARTCHAR (
ENCODING 40
SWIDTH 570 0
DWIDTH 7 0
BBX 7 13 0 -2
BITMAP
00
00
08
10
10
20
20
20
10
10
08
00
00
ENDCHAR
STARTCHAR )
ENCODING 41
SWIDTH 570 0
DWIDTH 7 0
BBX 7 13 0 -2
BITMAP
00
00
20
10
10
08
08
08
10
10
20
00
00
ENDCHAR
STARTCHAR *
ENCODING 42
SWIDTH 570 0
DWIDTH 7 0
BBX 7 13 0 -2
BITMAP
00
00
00
00
48
30
fc
30
48
00
00
00
00
ENDCHAR
STARTCHAR +
ENCODING 43
SWIDTH 570 0
DWIDTH 7 0
BBX 7 13 0 -2
BITMAP
00
00
00
00
10
10
7c
10
10
00
00
00
00
ENDCHAR
STARTCHAR ,
ENCODING 44
SWIDTH 570 0
DWIDTH 7 0
BBX 7 13 0 -2
BITMAP
00
00
00
00
00
00
00
00
00
38
30
40
00
ENDCHAR
STARTCHAR -
ENCODING 45
SWIDTH 570 0
DWIDTH 7 0
BBX 7 13 0 -2
BITMAP
00
00
00
00
00
00
fc
00
00
00
00
00
00
ENDCHAR
STARTCHAR .
ENCODING 46
SWIDTH 570 0
DWIDTH 7 0
BBX 7 13 0 -2
BITMAP
00
00
00
00
00
00
00
00
00
10
38
10
00
ENDCHAR
STARTCHAR /
ENCODING 47
SWIDTH 570 0
DWIDTH 7 0
BBX 7 13 0 -2
BITMAP
00
00
04
04
08
08
10
20
20
40
40
00
00
ENDCHAR
STARTCHAR 0
ENCODING 48
SWIDTH 570 0
DWIDTH 7 0
BBX 7 13 0 -2
BITMAP
00
00
30
48
84
84
84
84
84
48
30
00
00
ENDCHAR
STARTCHAR 1
ENCODING 49
SWIDTH 570 0
DWIDTH 7 0
BBX 7 13 0 -2
BITMAP
00
00
10
30
50
10
10
10
10
10
7c
00
00
ENDCHAR
STARTCHAR 2
ENCODING 50
SWIDTH 570 0
DWIDTH 7 0
BBX 7 13 0 -2
BITMAP
00
00
78
84
84
04
08
30
40
80
fc
00
00
ENDCHAR
STARTCHAR 3
ENCODING 51
SWIDTH 570 0
DWIDTH 7 0
BBX 7 13 0 -2
BITMAP
00
00
fc
04
08
10
38
04
04
84
78
00
00
ENDCHAR
STARTCHAR 4
ENCODING 52
SWIDTH 570 0
DWIDTH 7 0
BBX 7 13 0 -2
BITMAP
00
00
08
18
28
48
88
88
fc
08
08
00
00
ENDCHAR
STARTCHAR 5
ENCODING 53
SWIDTH 570 0
DWIDTH 7 0
BBX 7 13 0 -2
BITMAP
00
00
fc
80
80
b8
c4
04
04
84
78
00
00
ENDCHAR
STARTCHAR 6
ENCODING 54
SWIDTH 570 0
DWIDTH 7 0
BBX 7 13 0 -2
BITMAP
00
00
38
40
80
80
b8
c4
84
84
78
00
00
ENDCHAR
STARTCHAR 7
ENCODING 55
SWIDTH 570 0
DWIDTH 7 0
BBX 7 13 0 -2
BITMAP
00
00
fc
04
08
10
10
20
20
40
40
00
00
ENDCHAR
STARTCHAR 8
ENCODING 56
SWIDTH 570 0
DWIDTH 7 0
BBX 7 13 0 -2
BITMAP
00
00
78
84
84
84
78
84
84
84
78
00
00
ENDCHAR
STARTCHAR 9
ENCODING 57
SWIDTH 570 0
DWIDTH 7 0
BBX 7 13 0 -2
BITMAP
00
00
78
84
84
8c
74
04
04
08
70
00
00
ENDCHAR
STARTCHAR :
ENCODING 58
SWIDTH 570 0
DWIDTH 7 0
BBX 7 13 0 -2
BITMAP
00
00
00
00
10
38
10
00
00
10
38
10
00
ENDCHAR
STARTCHAR ;
ENCODING 59
SWIDTH 570 0
DWIDTH 7 0
BBX 7 13 0 -2
BITMAP
00
00
00
00
10
38
10
00
00
38
30
40
00
ENDCHAR
STARTCHAR <
ENCODING 60
SWIDTH 570 0
DWIDTH 7 0
BBX 7 13 0 -2
BITMAP
00
00
04
08
10
20
40
20
10
08
04
00
00
ENDCHAR
STARTCHAR =
ENCODING 61
SWIDTH 570 0
DWIDTH 7 0
BBX 7 13 0 -2
BITMAP
00
00
00
00
00
fc
00
00
fc
00
00
00
00
ENDCHAR
STARTCHAR >
ENCODING 62
SWIDTH 570 0
DWIDTH 7 0
BBX 7 13 0 -2
BITMAP
00
00
40
20
10
08
04
08
10
20
40
00
00
ENDCHAR
STARTCHAR ?
ENCODING 63
SWIDTH 570 0
DWIDTH 7 0
BBX 7 13 0 -2
BITMAP
00
00
78
84
84
04
08
10
10
00
10
00
00
ENDCHAR
STARTCHAR @
ENCODING 64
SWIDTH 570 0
DWIDTH 7 0
BBX 7 13 0 -2
BITMAP
00
00
78
84
84
9c
a4
ac
94
80
78
00
00
ENDCHAR
STARTCHAR A
ENCODING 65
SWIDTH 570 0
DWIDTH 7 0
BBX 7 13 0 -2
BITMAP
00
00
30
48
84
84
84
fc
84
84
84
00
00
ENDCHAR
STARTCHAR B
ENCODING 66
SWIDTH 570 0
DWIDTH 7 0
BBX 7 13 0 -2
BITMAP
00
00
f8
44
44
44
78
44
44
44
f8
00
00
ENDCHAR
STARTCHAR C
ENCODING 67
SWIDTH 570 0
DWIDTH 7 0
BBX 7 13 0 -2
BITMAP
00
00
78
84
80
80
80
80
80
84
78
00
00
ENDCHAR
STARTCHAR D
ENCODING 68
SWIDTH 570 0
DWIDTH 7 0
BBX 7 13 0 -2
BITMAP
00
00
f8
44
44
44
44
44
44
44
f8
00
00
ENDCHAR
STARTCHAR E
ENCODING 69
SWIDTH 570 0
DWIDTH 7 0
BBX 7 13 0 -2
BITMAP
00
00
fc
80
80
80
f0
80
80
80
fc
00
00
ENDCHAR
STARTCHAR F
ENCODING 70
SWIDTH 570 0
DWIDTH 7 0
BBX 7 13 0 -2
BITMAP
00
00
fc
80
80
80
f0
80
80
80
80
00
00
ENDCHAR
STARTCHAR G
ENCODING 71
SWIDTH 570 0
DWIDTH 7 0
BBX 7 13 0 -2
BITMAP
00
00
78
84
80
80
80
9c
84
8c
74
00
00
ENDCHAR
STARTCHAR H
ENCODING 72
SWIDTH 570 0
DWIDTH 7 0
BBX 7 13 0 -2
BITMAP
00
00
84
84
84
84
fc
84
84
84
84
00
00
ENDCHAR
STARTCHAR I
ENCODING 73
SWIDTH 570 0
DWIDTH 7 0
BBX 7 13 0 -2
BITMAP
00
00
f8
20
20
20
20
20
20
20
f8
00
00
ENDCHAR
STARTCHAR J
ENCODING 74
SWIDTH 570 0
DWIDTH 7 0
BBX 7 13 0 -2
BITMAP
00
00
1c
08
08
08
08
08
08
88
70
00
00
ENDCHAR
STARTCHAR K
ENCODING 75
SWIDTH 570 0
DWIDTH 7 0
BBX 7 13 0 -2
BITMAP
00
00
84
88
90
a0
c0
a0
90
88
84
00
00
ENDCHAR
STARTCHAR L
ENCODING 76
SWIDTH 570 0
DWIDTH 7 0
BBX 7 13 0 -2
BITMAP
00
00
80
80
80
80
80
80
80
80
fc
00
00
ENDCHAR
STARTCHAR M
ENCODING 77
SWIDTH 570 0
DWIDTH 7 0
BBX 7 13 0 -2
BITMAP
00
00
84
cc
cc
b4
b4
84
84
84
84
00
00
ENDCHAR
STARTCHAR N
ENCODING 78
SWIDTH 570 0
DWIDTH 7 0
BBX 7 13 0 -2
BITMAP
00
00
84
84
c4
a4
94
8c
84
84
84
00
00
ENDCHAR
STARTCHAR O
ENCODING 79
SWIDTH 570 0
DWIDTH 7 0
BBX 7 13 0 -2
BITMAP
00
00
78
84
84
84
84
84
84
84
78
00
00
ENDCHAR
STARTCHAR P
ENCODING 80
SWIDTH 570 0
DWIDTH 7 0
BBX 7 13 0 -2
BITMAP
00
00
f8
84
84
84
f8
80
80
80
80
00
00
ENDCHAR
STARTCHAR Q
ENCODING 81
SWIDTH 570 0
DWIDTH 7 0
BBX 7 13 0 -2
BITMAP
00
00
78
84
84
84
84
84
a4
94
78
04
00
ENDCHAR
STARTCHAR R
ENCODING 82
SWIDTH 570 0
DWIDTH 7 0
BBX 7 13 0 -2
BITMAP
00
00
f8
84
84
84
f8
a0
90
88
84
00
00
ENDCHAR
STARTCHAR S
ENCODING 83
SWIDTH 570 0
DWIDTH 7 0
BBX 7 13 0 -2
BITMAP
00
00
78
84
80
80
78
04
04
84
78
00
00
ENDCHAR
STARTCHAR T
ENCODING 84
SWIDTH 570 0
DWIDTH 7 0
BBX 7 13 0 -2
BITMAP
00
00
f8
20
20
20
20
20
20
20
20
00
00
ENDCHAR
STARTCHAR U
ENCODING 85
SWIDTH 570 0
DWIDTH 7 0
BBX 7 13 0 -2
BITMAP
00
00
84
84
84
84
84
84
84
84
78
00
00
ENDCHAR
STARTCHAR V
ENCODING 86
SWIDTH 570 0
DWIDTH 7 0
BBX 7 13 0 -2
BITMAP
00
00
84
84
84
48
48
48
30
30
30
00
00
ENDCHAR
STARTCHAR W
ENCODING 87
SWIDTH 570 0
DWIDTH 7 0
BBX 7 13 0 -2
BITMAP
00
00
84
84
84
84
b4
b4
cc
cc
84
00
00
ENDCHAR
STARTCHAR X
ENCODING 88
SWIDTH 570 0
DWIDTH 7 0
BBX 7 13 0 -2
BITMAP
00
00
84
84
48
48
30
48
48
84
84
00
00
ENDCHAR
STARTCHAR Y
ENCODING 89
SWIDTH 570 0
DWIDTH 7 0
BBX 7 13 0 -2
BITMAP
00
00
88
88
50
50
20
20
20
20
20
00
00
ENDCHAR
STARTCHAR Z
ENCODING 90
SWIDTH 570 0
DWIDTH 7 0
BBX 7 13 0 -2
BITMAP
00
00
fc
04
08
10
30
20
40
80
fc
00
00
ENDCHAR
STARTCHAR [
ENCODING 91
SWIDTH 570 0
DWIDTH 7 0
BBX 7 13 0 -2
BITMAP
00
00
78
40
40
40
40
40
40
40
78
00
00
ENDCHAR
STARTCHAR \
ENCODING 92
SWIDTH 570 0
DWIDTH 7 0
BBX 7 13 0 -2
BITMAP
00
00
40
40
20
20
10
08
08
04
04
00
00
ENDCHAR
STARTCHAR ]
ENCODING 93
SWIDTH 570 0
DWIDTH 7 0
BBX 7 13 0 -2
BITMAP
00
00
78
08
08
08
08
08
08
08
78
00
00
ENDCHAR
STARTCHAR ^
ENCODING 94
SWIDTH 570 0
DWIDTH 7 0
BBX 7 13 0 -2
BITMAP
00
00
10
28
44
00
00
00
00
00
00
00
00
ENDCHAR
STARTCHAR _
ENCODING 95
SWIDTH 570 0
DWIDTH 7 0
BBX 7 13 0 -2
BITMAP
00
00
00
00
00
00
00
00
00
00
00
fc
00
ENDCHAR
STARTCHAR `
ENCODING 96
SWIDTH 570 0
DWIDTH 7 0
BBX 7 13 0 -2
BITMAP
00
00
70
30
08
00
00
00
00
00
00
00
00
ENDCHAR
STARTCHAR a
ENCODING 97
SWIDTH 570 0
DWIDTH 7 0
BBX 7 13 0 -2
BITMAP
00
00
00
00
00
78
04
7c
84
8c
74
00
00
ENDCHAR
STARTCHAR b
ENCODING 98
SWIDTH 570 0
DWIDTH 7 0
BBX 7 13 0 -2
BITMAP
00
00
80
80
80
b8
c4
84
84
c4
b8
00
00
ENDCHAR
STARTCHAR c
ENCODING 99
SWIDTH 570 0
DWIDTH 7 0
BBX 7 13 0 -2
BITMAP
00
00
00
00
00
78
84
80
80
84
78
00
00
ENDCHAR
STARTCHAR d
ENCODING 100
SWIDTH 570 0
DWIDTH 7 0
BBX 7 13 0 -2
BITMAP
00
00
04
04
04
74
8c
84
84
8c
74
00
00
ENDCHAR
STARTCHAR e
ENCODING 101
SWIDTH 570 0
DWIDTH 7 0
BBX 7 13 0 -2
BITMAP
00
00
00
00
00
78
84
fc
80
84
78
00
00
ENDCHAR
STARTCHAR f
ENCODING 102
SWIDTH 570 0
DWIDTH 7 0
BBX 7 13 0 -2
BITMAP
00
00
38
44
40
40
f0
40
40
40
40
00
00
ENDCHAR
STARTCHAR g
ENCODING 103
SWIDTH 570 0
DWIDTH 7 0
BBX 7 13 0 -2
BITMAP
00
00
00
00
00
74
88
88
70
80
78
84
78
ENDCHAR
STARTCHAR h
ENCODING 104
SWIDTH 570 0
DWIDTH 7 0
BBX 7 13 0 -2
BITMAP
00
00
80
80
80
b8
c4
84
84
84
84
00
00
ENDCHAR
STARTCHAR i
ENCODING 105
SWIDTH 570 0
DWIDTH 7 0
BBX 7 13 0 -2
BITMAP
00
00
00
20
00
60
20
20
20
20
f8
00
00
ENDCHAR
STARTCHAR j
ENCODING 106
SWIDTH 570 0
DWIDTH 7 0
BBX 7 13 0 -2
BITMAP
00
00
00
08
00
18
08
08
08
08
88
88
70
ENDCHAR
STARTCHAR k
ENCODING 107
SWIDTH 570 0
DWIDTH 7 0
BBX 7 13 0 -2
BITMAP
00
00
80
80
80
88
90
e0
90
88
84
00
00
ENDCHAR
STARTCHAR l
ENCODING 108
SWIDTH 570 0
DWIDTH 7 0
BBX 7 13 0 -2
BITMAP
00
00
60
20
20
20
20
20
20
20
f8
00
00
ENDCHAR
STARTCHAR m
ENCODING 109
SWIDTH 570 0
DWIDTH 7 0
BBX 7 13 0 -2
BITMAP
00
00
00
00
00
d0
a8
a8
a8
a8
88
00
00
ENDCHAR
STARTCHAR n
ENCODING 110
SWIDTH 570 0
DWIDTH 7 0
BBX 7 13 0 -2
BITMAP
00
00
00
00
00
b8
c4
84
84
84
84
00
00
ENDCHAR
STARTCHAR o
ENCODING 111
SWIDTH 570 0
DWIDTH 7 0
BBX 7 13 0 -2
BITMAP
00
00
00
00
00
78
84
84
84
84
78
00
00
ENDCHAR
STARTCHAR p
ENCODING 112
SWIDTH 570 0
DWIDTH 7 0
BBX 7 13 0 -2
BITMAP
00
00
00
00
00
b8
c4
84
c4
b8
80
80
80
ENDCHAR
STARTCHAR q
ENCODING 113
SWIDTH 570 0
DWIDTH 7 0
BBX 7 13 0 -2
BITMAP
00
00
00
00
00
74
8c
84
8c
74
04
04
04
ENDCHAR
STARTCHAR r
ENCODING 114
SWIDTH 570 0
DWIDTH 7 0
BBX 7 13 0 -2
BITMAP
00
00
00
00
00
b8
44
40
40
40
40
00
00
ENDCHAR
STARTCHAR s
ENCODING 115
SWIDTH 570 0
DWIDTH 7 0
BBX 7 13 0 -2
BITMAP
00
00
00
00
00
78
84
60
18
84
78
00
00
ENDCHAR
STARTCHAR t
ENCODING 116
SWIDTH 570 0
DWIDTH 7 0
BBX 7 13 0 -2
BITMAP
00
00
00
40
40
f0
40
40
40
44
38
00
00
ENDCHAR
STARTCHAR u
ENCODING 117
SWIDTH 570 0
DWIDTH 7 0
BBX 7 13 0 -2
BITMAP
00
00
00
00
00
84
84
84
84
8c
74
00
00
ENDCHAR
STARTCHAR v
ENCODING 118
SWIDTH 570 0
DWIDTH 7 0
BBX 7 13 0 -2
BITMAP
00
00
00
00
00
88
88
88
50
50
20
00
00
ENDCHAR
STARTCHAR w
ENCODING 119
SWIDTH 570 0
DWIDTH 7 0
BBX 7 13 0 -2
BITMAP
00
00
00
00
00
88
88
a8
a8
a8
50
00
00
ENDCHAR
STARTCHAR x
ENCODING 120
SWIDTH 570 0
DWIDTH 7 0
BBX 7 13 0 -2
BITMAP
00
00
00
00
00
84
48
30
30
48
84
00
00
ENDCHAR
STARTCHAR y
ENCODING 121
SWIDTH 570 0
DWIDTH 7 0
BBX 7 13 0 -2
BITMAP
00
00
00
00
00
84
84
84
8c
74
04
84
78
ENDCHAR
STARTCHAR z
ENCODING 122
SWIDTH 570 0
DWIDTH 7 0
BBX 7 13 0 -2
BITMAP
00
00
00
00
00
fc
08
10
20
40
fc
00
00
ENDCHAR
STARTCHAR {
ENCODING 123
SWIDTH 570 0
DWIDTH 7 0
BBX 7 13 0 -2
BITMAP
00
00
1c
20
20
10
60
10
20
20
1c
00
00
ENDCHAR
STARTCHAR |
ENCODING 124
SWIDTH 570 0
DWIDTH 7 0
BBX 7 13 0 -2
BITMAP
00
00
10
10
10
10
10
10
10
10
10
00
00
ENDCHAR
STARTCHAR }
ENCODING 125
SWIDTH 570 0
DWIDTH 7 0
BBX 7 13 0 -2
BITMAP
00
00
70
08
08
10
0c
10
08
08
70
00
00
ENDCHAR
STARTCHAR ~
ENCODING 126
SWIDTH 570 0
DWIDTH 7 0
BBX 7 13 0 -2
BITMAP
00
00
24
54
48
00
00
00
00
00
00
00
00
ENDCHAR
STARTCHAR (Blank)
ENCODING 127
SWIDTH 570 0
DWIDTH 7 0
BBX 7 13 0 -2
BITMAP
00
00
00
00
00
00
00
00
00
00
00
00
00
ENDCHAR
STARTCHAR 00a0
ENCODING 160
SWIDTH 666 0
DWIDTH 7 0
BBX 7 13 0 -2
BITMAP
00
00
00
00
00
00
00
00
00
00
00
00
00
ENDCHAR
STARTCHAR 00a1
ENCODING 161
SWIDTH 666 0
DWIDTH 7 0
BBX 7 13 0 -2
BITMAP
00
00
10
00
10
10
10
10
10
10
10
00
00
ENDCHAR
STARTCHAR 00a2
ENCODING 162
SWIDTH 666 0
DWIDTH 7 0
BBX 7 13 0 -2
BITMAP
00
00
10
38
54
50
50
54
38
10
00
00
00
ENDCHAR
STARTCHAR 00a3
ENCODING 163
SWIDTH 666 0
DWIDTH 7 0
BBX 7 13 0 -2
BITMAP
00
00
38
44
40
40
e0
40
40
44
b8
00
00
ENDCHAR
STARTCHAR 00a4
ENCODING 164
SWIDTH 666 0
DWIDTH 7 0
BBX 7 13 0 -2
BITMAP
00
00
00
00
84
78
48
48
78
84
00
00
00
ENDCHAR
STARTCHAR 00a5
ENCODING 165
SWIDTH 666 0
DWIDTH 7 0
BBX 7 13 0 -2
BITMAP
00
00
88
88
50
50
f8
20
f8
20
20
00
00
ENDCHAR
STARTCHAR 00a6
ENCODING 166
SWIDTH 666 0
DWIDTH 7 0
BBX 7 13 0 -2
BITMAP
00
00
10
10
10
10
00
10
10
10
10
00
00
ENDCHAR
STARTCHAR 00a7
ENCODING 167
SWIDTH 666 0
DWIDTH 7 0
BBX 7 13 0 -2
BITMAP
00
30
48
40
30
48
48
30
08
48
30
00
00
ENDCHAR
STARTCHAR 00a8
ENCODING 168
SWIDTH 666 0
DWIDTH 7 0
BBX 7 13 0 -2
BITMAP
00
00
6c
00
00
00
00
00
00
00
00
00
00
ENDCHAR
STARTCHAR 00a9
ENCODING 169
SWIDTH 666 0
DWIDTH 7 0
BBX 7 13 0 -2
BITMAP
00
78
84
b4
a4
a4
a4
b4
84
78
00
00
00
ENDCHAR
STARTCHAR 00aa
ENCODING 170
SWIDTH 666 0
DWIDTH 7 0
BBX 7 13 0 -2
BITMAP
00
00
38
04
3c
44
3c
00
7c
00
00
00
00
ENDCHAR
STARTCHAR 00ab
ENCODING 171
SWIDTH 666 0
DWIDTH 7 0
BBX 7 13 0 -2
BITMAP
00
00
00
14
28
50
a0
50
28
14
00
00
00
ENDCHAR
STARTCHAR 00ac
ENCODING 172
SWIDTH 666 0
DWIDTH 7 0
BBX 7 13 0 -2
BITMAP
00
00
00
00
00
00
7c
04
04
00
00
00
00
ENDCHAR
STARTCHAR 00ad
ENCODING 173
SWIDTH 666 0
DWIDTH 7 0
BBX 7 13 0 -2
BITMAP
00
00
00
00
00
00
7c
00
00
00
00
00
00
ENDCHAR
STARTCHAR 00ae
ENCODING 174
SWIDTH 666 0
DWIDTH 7 0
BBX 7 13 0 -2
BITMAP
00
78
84
b4
ac
ac
b4
ac
84
78
00
00
00
ENDCHAR
STARTCHAR 00af
ENCODING 175
SWIDTH 666 0
DWIDTH 7 0
BBX 7 13 0 -2
BITMAP
00
00
7c
00
00
00
00
00
00
00
00
00
00
ENDCHAR
STARTCHAR 00b0
ENCODING 176
SWIDTH 666 0
DWIDTH 7 0
BBX 7 13 0 -2
BITMAP
00
00
30
48
48
30
00
00
00
00
00
00
00
ENDCHAR
STARTCHAR 00b1
ENCODING 177
SWIDTH 666 0
DWIDTH 7 0
BBX 7 13 0 -2
BITMAP
00
00
00
10
10
7c
10
10
00
7c
00
00
00
ENDCHAR
STARTCHAR 00b2
ENCODING 178
SWIDTH 666 0
DWIDTH 7 0
BBX 7 13 0 -2
BITMAP
00
40
a0
20
40
80
e0
00
00
00
00
00
00
ENDCHAR
STARTCHAR 00b3
ENCODING 179
SWIDTH 666 0
DWIDTH 7 0
BBX 7 13 0 -2
BITMAP
00
e0
20
40
20
a0
40
00
00
00
00
00
00
ENDCHAR
STARTCHAR 00b4
ENCODING 180
SWIDTH 666 0
DWIDTH 7 0
BBX 7 13 0 -2
BITMAP
00
10
20
00
00
00
00
00
00
00
00
00
00
ENDCHAR
STARTCHAR 00b5
ENCODING 181
SWIDTH 666 0
DWIDTH 7 0
BBX 7 13 0 -2
BITMAP
00
00
00
00
00
84
84
84
84
cc
b4
80
00
ENDCHAR
STARTCHAR 00b6
ENCODING 182
SWIDTH 666 0
DWIDTH 7 0
BBX 7 13 0 -2
BITMAP
00
00
7c
e8
e8
e8
68
28
28
28
28
00
00
ENDCHAR
STARTCHAR 00b7
ENCODING 183
SWIDTH 666 0
DWIDTH 7 0
BBX 7 13 0 -2
BITMAP
00
00
00
00
00
00
30
00
00
00
00
00
00
ENDCHAR
STARTCHAR 00b8
ENCODING 184
SWIDTH 666 0
DWIDTH 7 0
BBX 7 13 0 -2
BITMAP
00
00
00
00
00
00
00
00
00
00
00
10
20
ENDCHAR
STARTCHAR 00b9
ENCODING 185
SWIDTH 666 0
DWIDTH 7 0
BBX 7 13 0 -2
BITMAP
00
40
c0
40
40
40
e0
00
00
00
00
00
00
ENDCHAR
STARTCHAR 00ba
ENCODING 186
SWIDTH 666 0
DWIDTH 7 0
BBX 7 13 0 -2
BITMAP
00
00
30
48
48
30
00
78
00
00
00
00
00
ENDCHAR
STARTCHAR 00bb
ENCODING 187
SWIDTH 666 0
DWIDTH 7 0
BBX 7 13 0 -2
BITMAP
00
00
00
a0
50
28
14
28
50
a0
00
00
00
ENDCHAR
STARTCHAR 00bc
ENCODING 188
SWIDTH 666 0
DWIDTH 7 0
BBX 7 13 0 -2
BITMAP
00
40
c0
40
40
44
ec
14
14
1c
04
00
00
ENDCHAR
STARTCHAR 00bd
ENCODING 189
SWIDTH 666 0
DWIDTH 7 0
BBX 7 13 0 -2
BITMAP
00
40
c0
40
40
48
f4
04
08
10
1c
00
00
ENDCHAR
STARTCHAR 00be
ENCODING 190
SWIDTH 666 0
DWIDTH 7 0
BBX 7 13 0 -2
BITMAP
00
e0
20
40
20
a4
4c
14
14
1c
04
00
00
ENDCHAR
STARTCHAR 00bf
ENCODING 191
SWIDTH 666 0
DWIDTH 7 0
BBX 7 13 0 -2
BITMAP
00
00
20
00
20
20
40
80
84
84
78
00
00
ENDCHAR
STARTCHAR 00c0
ENCODING 192
SWIDTH 666 0
DWIDTH 7 0
BBX 7 13 0 -2
BITMAP
00
20
10
00
30
48
84
84
fc
84
84
00
00
ENDCHAR
STARTCHAR 00c1
ENCODING 193
SWIDTH 666 0
DWIDTH 7 0
BBX 7 13 0 -2
BITMAP
00
10
20
00
30
48
84
84
fc
84
84
00
00
ENDCHAR
STARTCHAR 00c2
ENCODING 194
SWIDTH 666 0
DWIDTH 7 0
BBX 7 13 0 -2
BITMAP
00
30
48
00
30
48
84
84
fc
84
84
00
00
ENDCHAR
STARTCHAR 00c3
ENCODING 195
SWIDTH 666 0
DWIDTH 7 0
BBX 7 13 0 -2
BITMAP
00
28
50
00
30
48
84
84
fc
84
84
00
00
ENDCHAR
STARTCHAR 00c4
ENCODING 196
SWIDTH 666 0
DWIDTH 7 0
BBX 7 13 0 -2
BITMAP
00
48
48
00
30
48
84
84
fc
84
84
00
00
ENDCHAR
STARTCHAR 00c5
ENCODING 197
SWIDTH 666 0
DWIDTH 7 0
BBX 7 13 0 -2
BITMAP
00
30
48
30
30
48
84
84
fc
84
84
00
00
ENDCHAR
STARTCHAR 00c6
ENCODING 198
SWIDTH 666 0
DWIDTH 7 0
BBX 7 13 0 -2
BITMAP
00
00
5c
a0
a0
a0
b8
e0
a0
a0
bc
00
00
ENDCHAR
STARTCHAR 00c7
ENCODING 199
SWIDTH 666 0
DWIDTH 7 0
BBX 7 13 0 -2
BITMAP
00
00
78
84
80
80
80
80
80
84
78
10
20
ENDCHAR
STARTCHAR 00c8
ENCODING 200
SWIDTH 666 0
DWIDTH 7 0
BBX 7 13 0 -2
BITMAP
00
20
10
00
fc
80
80
f0
80
80
fc
00
00
ENDCHAR
STARTCHAR 00c9
ENCODING 201
SWIDTH 666 0
DWIDTH 7 0
BBX 7 13 0 -2
BITMAP
00
10
20
00
fc
80
80
f0
80
80
fc
00
00
ENDCHAR
STARTCHAR 00ca
ENCODING 202
SWIDTH 666 0
DWIDTH 7 0
BBX 7 13 0 -2
BITMAP
00
30
48
00
fc
80
80
f0
80
80
fc
00
00
ENDCHAR
STARTCHAR 00cb
ENCODING 203
SWIDTH 666 0
DWIDTH 7 0
BBX 7 13 0 -2
BITMAP
00
48
48
00
fc
80
80
f0
80
80
fc
00
00
ENDCHAR
STARTCHAR 00cc
ENCODING 204
SWIDTH 666 0
DWIDTH 7 0
BBX 7 13 0 -2
BITMAP
00
20
10
00
7c
10
10
10
10
10
7c
00
00
ENDCHAR
STARTCHAR 00cd
ENCODING 205
SWIDTH 666 0
DWIDTH 7 0
BBX 7 13 0 -2
BITMAP
00
10
20
00
7c
10
10
10
10
10
7c
00
00
ENDCHAR
STARTCHAR 00ce
ENCODING 206
SWIDTH 666 0
DWIDTH 7 0
BBX 7 13 0 -2
BITMAP
00
30
48
00
7c
10
10
10
10
10
7c
00
00
ENDCHAR
STARTCHAR 00cf
ENCODING 207
SWIDTH 666 0
DWIDTH 7 0
BBX 7 13 0 -2
BITMAP
00
28
28
00
7c
10
10
10
10
10
7c
00
00
ENDCHAR
STARTCHAR 00d0
ENCODING 208
SWIDTH 666 0
DWIDTH 7 0
BBX 7 13 0 -2
BITMAP
00
00
f8
44
44
44
e4
44
44
44
f8
00
00
ENDCHAR
STARTCHAR 00d1
ENCODING 209
SWIDTH 666 0
DWIDTH 7 0
BBX 7 13 0 -2
BITMAP
00
28
50
00
84
c4
a4
a4
94
8c
84
00
00
ENDCHAR
STARTCHAR 00d2
ENCODING 210
SWIDTH 666 0
DWIDTH 7 0
BBX 7 13 0 -2
BITMAP
00
20
10
00
78
84
84
84
84
84
78
00
00
ENDCHAR
STARTCHAR 00d3
ENCODING 211
SWIDTH 666 0
DWIDTH 7 0
BBX 7 13 0 -2
BITMAP
00
10
20
00
78
84
84
84
84
84
78
00
00
ENDCHAR
STARTCHAR 00d4
ENCODING 212
SWIDTH 666 0
DWIDTH 7 0
BBX 7 13 0 -2
BITMAP
00
30
48
00
78
84
84
84
84
84
78
00
00
ENDCHAR
STARTCHAR 00d5
ENCODING 213
SWIDTH 666 0
DWIDTH 7 0
BBX 7 13 0 -2
BITMAP
00
28
50
00
78
84
84
84
84
84
78
00
00
ENDCHAR
STARTCHAR 00d6
ENCODING 214
SWIDTH 666 0
DWIDTH 7 0
BBX 7 13 0 -2
BITMAP
00
48
48
00
78
84
84
84
84
84
78
00
00
ENDCHAR
STARTCHAR 00d7
ENCODING 215
SWIDTH 666 0
DWIDTH 7 0
BBX 7 13 0 -2
BITMAP
00
00
00
00
84
48
30
30
48
84
00
00
00
ENDCHAR
STARTCHAR 00d8
ENCODING 216
SWIDTH 666 0
DWIDTH 7 0
BBX 7 13 0 -2
BITMAP
00
04
78
8c
94
94
a4
a4
a4
c4
78
80
00
ENDCHAR
STARTCHAR 00d9
ENCODING 217
SWIDTH 666 0
DWIDTH 7 0
BBX 7 13 0 -2
BITMAP
00
20
10
00
84
84
84
84
84
84
78
00
00
ENDCHAR
STARTCHAR 00da
ENCODING 218
SWIDTH 666 0
DWIDTH 7 0
BBX 7 13 0 -2
BITMAP
00
10
20
00
84
84
84
84
84
84
78
00
00
ENDCHAR
STARTCHAR 00db
ENCODING 219
SWIDTH 666 0
DWIDTH 7 0
BBX 7 13 0 -2
BITMAP
00
30
48
00
84
84
84
84
84
84
78
00
00
ENDCHAR
STARTCHAR 00dc
ENCODING 220
SWIDTH 666 0
DWIDTH 7 0
BBX 7 13 0 -2
BITMAP
00
48
48
00
84
84
84
84
84
84
78
00
00
ENDCHAR
STARTCHAR 00dd
ENCODING 221
SWIDTH 666 0
DWIDTH 7 0
BBX 7 13 0 -2
BITMAP
00
10
20
00
44
44
28
10
10
10
10
00
00
ENDCHAR
STARTCHAR 00de
ENCODING 222
SWIDTH 666 0
DWIDTH 7 0
BBX 7 13 0 -2
BITMAP
00
00
80
f8
84
84
84
f8
80
80
80
00
00
ENDCHAR
STARTCHAR 00df
ENCODING 223
SWIDTH 666 0
DWIDTH 7 0
BBX 7 13 0 -2
BITMAP
00
00
00
78
84
84
f8
84
84
c4
b8
80
00
ENDCHAR
STARTCHAR 00e0
ENCODING 224
SWIDTH 666 0
DWIDTH 7 0
BBX 7 13 0 -2
BITMAP
00
20
10
00
00
78
04
7c
84
8c
74
00
00
ENDCHAR
STARTCHAR 00e1
ENCODING 225
SWIDTH 666 0
DWIDTH 7 0
BBX 7 13 0 -2
BITMAP
00
10
20
00
00
78
04
7c
84
8c
74
00
00
ENDCHAR
STARTCHAR 00e2
ENCODING 226
SWIDTH 666 0
DWIDTH 7 0
BBX 7 13 0 -2
BITMAP
00
30
48
00
00
78
04
7c
84
8c
74
00
00
ENDCHAR
STARTCHAR 00e3
ENCODING 227
SWIDTH 666 0
DWIDTH 7 0
BBX 7 13 0 -2
BITMAP
00
28
50
00
00
78
04
7c
84
8c
74
00
00
ENDCHAR
STARTCHAR 00e4
ENCODING 228
SWIDTH 666 0
DWIDTH 7 0
BBX 7 13 0 -2
BITMAP
00
48
48
00
00
78
04
7c
84
8c
74
00
00
ENDCHAR
STARTCHAR 00e5
ENCODING 229
SWIDTH 666 0
DWIDTH 7 0
BBX 7 13 0 -2
BITMAP
00
30
48
30
00
78
04
7c
84
8c
74
00
00
ENDCHAR
STARTCHAR 00e6
ENCODING 230
SWIDTH 666 0
DWIDTH 7 0
BBX 7 13 0 -2
BITMAP
00
00
00
00
00
68
14
7c
90
94
68
00
00
ENDCHAR
STARTCHAR 00e7
ENCODING 231
SWIDTH 666 0
DWIDTH 7 0
BBX 7 13 0 -2
BITMAP
00
00
00
00
00
78
84
80
80
84
78
10
20
ENDCHAR
STARTCHAR 00e8
ENCODING 232
SWIDTH 666 0
DWIDTH 7 0
BBX 7 13 0 -2
BITMAP
00
20
10
00
00
78
84
fc
80
84
78
00
00
ENDCHAR
STARTCHAR 00e9
ENCODING 233
SWIDTH 666 0
DWIDTH 7 0
BBX 7 13 0 -2
BITMAP
00
10
20
00
00
78
84
fc
80
84
78
00
00
ENDCHAR
STARTCHAR 00ea
ENCODING 234
SWIDTH 666 0
DWIDTH 7 0
BBX 7 13 0 -2
BITMAP
00
30
48
00
00
78
84
fc
80
84
78
00
00
ENDCHAR
STARTCHAR 00eb
ENCODING 235
SWIDTH 666 0
DWIDTH 7 0
BBX 7 13 0 -2
BITMAP
00
48
48
00
00
78
84
fc
80
84
78
00
00
ENDCHAR
STARTCHAR 00ec
ENCODING 236
SWIDTH 666 0
DWIDTH 7 0
BBX 7 13 0 -2
BITMAP
00
20
10
00
00
30
10
10
10
10
7c
00
00
ENDCHAR
STARTCHAR 00ed
ENCODING 237
SWIDTH 666 0
DWIDTH 7 0
BBX 7 13 0 -2
BITMAP
00
10
20
00
00
30
10
10
10
10
7c
00
00
ENDCHAR
STARTCHAR 00ee
ENCODING 238
SWIDTH 666 0
DWIDTH 7 0
BBX 7 13 0 -2
BITMAP
00
30
48
00
00
30
10
10
10
10
7c
00
00
ENDCHAR
STARTCHAR 00ef
ENCODING 239
SWIDTH 666 0
DWIDTH 7 0
BBX 7 13 0 -2
BITMAP
00
48
48
00
00
30
10
10
10
10
7c
00
00
ENDCHAR
STARTCHAR 00f0
ENCODING 240
SWIDTH 666 0
DWIDTH 7 0
BBX 7 13 0 -2
BITMAP
00
48
30
50
08
78
84
84
84
84
78
00
00
ENDCHAR
STARTCHAR 00f1
ENCODING 241
SWIDTH 666 0
DWIDTH 7 0
BBX 7 13 0 -2
BITMAP
00
28
50
00
00
b8
c4
84
84
84
84
00
00
ENDCHAR
STARTCHAR 00f2
ENCODING 242
SWIDTH 666 0
DWIDTH 7 0
BBX 7 13 0 -2
BITMAP
00
20
10
00
00
78
84
84
84
84
78
00
00
ENDCHAR
STARTCHAR 00f3
ENCODING 243
SWIDTH 666 0
DWIDTH 7 0
BBX 7 13 0 -2
BITMAP
00
10
20
00
00
78
84
84
84
84
78
00
00
ENDCHAR
STARTCHAR 00f4
ENCODING 244
SWIDTH 666 0
DWIDTH 7 0
BBX 7 13 0 -2
BITMAP
00
30
48
00
00
78
84
84
84
84
78
00
00
ENDCHAR
STARTCHAR 00f5
ENCODING 245
SWIDTH 666 0
DWIDTH 7 0
BBX 7 13 0 -2
BITMAP
00
28
50
00
00
78
84
84
84
84
78
00
00
ENDCHAR
STARTCHAR 00f6
ENCODING 246
SWIDTH 666 0
DWIDTH 7 0
BBX 7 13 0 -2
BITMAP
00
48
48
00
00
78
84
84
84
84
78
00
00
ENDCHAR
STARTCHAR 00f7
ENCODING 247
SWIDTH 666 0
DWIDTH 7 0
BBX 7 13 0 -2
BITMAP
00
00
00
10
10
00
7c
00
10
10
00
00
00
ENDCHAR
STARTCHAR 00f8
ENCODING 248
SWIDTH 666 0
DWIDTH 7 0
BBX 7 13 0 -2
BITMAP
00
00
00
00
04
78
8c
94
a4
c4
78
80
00
ENDCHAR
STARTCHAR 00f9
ENCODING 249
SWIDTH 666 0
DWIDTH 7 0
BBX 7 13 0 -2
BITMAP
00
20
10
00
00
84
84
84
84
8c
74
00
00
ENDCHAR
STARTCHAR 00fa
ENCODING 250
SWIDTH 666 0
DWIDTH 7 0
BBX 7 13 0 -2
BITMAP
00
10
20
00
00
84
84
84
84
8c
74
00
00
ENDCHAR
STARTCHAR 00fb
ENCODING 251
SWIDTH 666 0
DWIDTH 7 0
BBX 7 13 0 -2
BITMAP
00
30
48
00
00
84
84
84
84
8c
74
00
00
ENDCHAR
STARTCHAR 00fc
ENCODING 252
SWIDTH 666 0
DWIDTH 7 0
BBX 7 13 0 -2
BITMAP
00
48
48
00
00
84
84
84
84
8c
74
00
00
ENDCHAR
STARTCHAR 00fd
ENCODING 253
SWIDTH 666 0
DWIDTH 7 0
BBX 7 13 0 -2
BITMAP
00
10
20
00
00
84
84
84
8c
74
04
84
78
ENDCHAR
STARTCHAR 00fe
ENCODING 254
SWIDTH 666 0
DWIDTH 7 0
BBX 7 13 0 -2
BITMAP
00
00
00
80
80
b8
c4
84
84
c4
b8
80
80
ENDCHAR
STARTCHAR 00ff
ENCODING 255
SWIDTH 666 0
DWIDTH 7 0
BBX 7 13 0 -2
BITMAP
00
48
48
00
00
84
84
84
8c
74
04
84
78
ENDCHAR
ENDFONT
